<?xml version="1.0" encoding="UTF-8" standalone="no"?>
<svg width="384px" height="93px" viewBox="0 0 384 93" version="1.1" xmlns="http://www.w3.org/2000/svg" xmlns:xlink="http://www.w3.org/1999/xlink">
    <!-- Generator: Sketch 3.6.1 (26313) - http://www.bohemiancoding.com/sketch -->
    <title>Untitled 2</title>
    <desc>Created with Sketch.</desc>
    <defs></defs>
    <g id="Page-1" stroke="none" stroke-width="1" fill="none" fill-rule="evenodd">
        <g id="logo" transform="translate(1.000000, 2.000000)" fill="#286655">
            <g id="Page-1">
                <g id="logo">
                    <g id="SvgjsUse1801" transform="translate(98.000000, 38.000000)">
                        <g id="t1486773915116">
                            <g id="Shape">
                                <path d="M11.0084926,0.996556076 C11.1871587,0.996556076 11.3328918,1.14276583 11.3328918,1.32127335 L11.3328918,13.6382586 C11.3328918,13.8492214 11.2030685,13.9788857 11.0245615,13.9788857 L8.99607248,13.9788857 C8.46055139,13.9788857 8.15222106,13.6056437 8.15222106,13.1025784 L8.15222106,9.24033538 L3.38121493,9.24033538 L3.38121493,13.6380995 C3.38121493,13.8166066 3.23516372,13.9787266 3.05665669,13.9787266 L0.55755824,13.9787266 C0.362823296,13.9787266 0.216772088,13.832834 0.216772088,13.6380995 L0.216772088,1.32111432 C0.216772088,1.14260728 0.346595384,0.996556076 0.541330328,0.996556076 L3.04042878,0.996556076 C3.21893581,0.996556076 3.38137396,1.14260728 3.38137396,1.32111432 L3.38137396,6.05966462 L8.15238009,6.05966462 L8.15238009,1.32111432 C8.15238009,1.14260728 8.28220339,0.996556076 8.47693833,0.996556076 L11.0084926,0.996556076 L11.0084926,0.996556076 L11.0084926,0.996556076 Z M29.1253336,13.6054814 C29.238929,13.8164443 29.1253336,13.9785644 28.8981428,13.9785644 L26.2367652,13.9785644 C26.0582582,13.9785644 25.9608907,13.8975834 25.8959791,13.7677605 L25.2144068,12.3234764 L20.2324378,12.3234764 L19.5670934,13.7677605 C19.5021818,13.9138118 19.3885864,13.9785644 19.2263072,13.9785644 L16.5649297,13.9785644 C16.3377389,13.9785644 16.2403714,13.8164438 16.3377389,13.6054814 L22.4068157,1.09376127 C22.4717274,0.980165885 22.5528669,0.931482149 22.6664623,0.931482149 L22.7962856,0.931482149 C22.9100395,0.931482149 22.9911796,0.980165885 23.0560912,1.09376127 L29.1253336,13.6054814 L29.1253336,13.6054814 Z M21.5306708,9.53227551 L23.932564,9.53227551 L22.7315395,6.93580959 L21.5306708,9.53227551 L21.5306708,9.53227551 Z M45.911648,0.996556076 C46.1226109,0.996556076 46.3175049,1.14260728 46.1714537,1.45093761 L40.2482658,13.7679228 C40.1671262,13.9302019 40.0535308,14.108709 39.8748648,14.108709 L39.6963577,14.108709 C39.5178507,14.108709 39.4042553,13.9302019 39.3231158,13.7679228 L33.3999279,1.4347097 C33.2538767,1.14260728 33.4486116,0.996556076 33.6595745,0.996556076 L36.3371799,0.996556076 C36.515687,0.996556076 36.6292824,1.14260728 36.7591057,1.40225388 L39.7937252,8.15306527 L42.8119546,1.40225388 C42.9417779,1.14260728 43.0555323,0.996556076 43.2340393,0.996556076 L45.9116448,0.996556076 L45.911648,0.996556076 L45.911648,0.996556076 Z M59.2897764,3.85250631 L54.1130725,3.85266479 L54.1130725,6.22193994 L56.8718175,6.22193994 C57.0503246,6.22193994 57.2126037,6.36799115 57.2126037,6.54649818 L57.2126037,8.7372663 C57.2126037,8.93200125 57.0665525,9.07789342 56.8718175,9.07789342 L54.1130725,9.07789342 L54.1130725,11.1226103 L59.2897764,11.1226103 C59.4682834,11.1226103 59.6305626,11.2686615 59.6305626,11.4471686 L59.6305626,13.6379367 C59.6305626,13.8326716 59.4845114,13.9785638 59.2897764,13.9785638 L51.3056437,13.9785638 C51.1109088,13.9785638 50.9648576,13.8326712 50.9648576,13.6379367 L50.9648576,1.32095148 C50.9648576,1.14244445 51.0946809,0.996393239 51.2894158,0.996393239 L59.2897764,0.996393239 C59.4682834,0.996393239 59.6305626,1.14244445 59.6305626,1.32095148 L59.6305626,3.5117196 C59.6305626,3.70645454 59.4845114,3.85250575 59.2897764,3.85250575 L59.2897764,3.85250631 L59.2897764,3.85250631 Z M85.3972413,13.6054814 C85.5108366,13.8164443 85.3972413,13.9785644 85.1700505,13.9785644 L82.5086729,13.9785644 C82.3301659,13.9785644 82.2327984,13.8975834 82.1678868,13.7677605 L81.4863145,12.3234764 L76.5043455,12.3234764 L75.8390011,13.7677605 C75.7740894,13.9138118 75.660494,13.9785644 75.4982149,13.9785644 L72.8368374,13.9785644 C72.6096466,13.9785644 72.5122791,13.8164438 72.6096466,13.6054814 L78.6787234,1.09376127 C78.7436351,0.980165885 78.8247746,0.931482149 78.93837,0.931482149 L79.0681933,0.931482149 C79.1819472,0.931482149 79.2630873,0.980165885 79.3279989,1.09376127 L85.3972413,13.6054814 L85.3972413,13.6054814 Z M77.8025784,9.53227551 L80.2044717,9.53227551 L79.0034472,6.93580959 L77.8025784,9.53227551 L77.8025784,9.53227551 Z M108.778417,13.5894125 C108.90824,13.8002164 108.810873,13.9787234 108.551226,13.9787234 L106.133267,13.9787234 C105.64643,13.9787234 105.224504,13.5405698 105.078453,13.2809232 L103.163559,9.95436351 L101.443401,9.95436351 L101.443401,13.6380995 C101.443401,13.8166066 101.297349,13.9787266 101.118842,13.9787266 L98.6359719,13.9787266 C98.4412369,13.9787266 98.2951857,13.832834 98.2951857,13.6380995 L98.2951857,1.32111432 C98.2951857,1.14260728 98.425009,0.996556076 98.619744,0.996556076 L103.893815,0.996556076 C106.636332,0.996556076 108.356491,3.49565453 108.356491,5.41054814 C108.356491,6.85483231 107.561323,8.42893978 106.181951,9.28901911 L108.778417,13.5894125 L108.778417,13.5894125 Z M101.443238,3.85250631 L101.443238,7.09808871 L103.406816,7.09808871 C104.721277,7.09808871 105.126974,6.15686982 105.126974,5.4590696 C105.126974,4.7774973 104.705049,3.85250631 103.406816,3.85250631 L101.443238,3.85250631 L101.443238,3.85250631 L101.443238,3.85250631 Z M126.067634,13.6054814 C126.18123,13.8164443 126.067634,13.9785644 125.840444,13.9785644 L123.179066,13.9785644 C123.000559,13.9785644 122.903191,13.8975834 122.83828,13.7677605 L122.156708,12.3234764 L117.174739,12.3234764 L116.509394,13.7677605 C116.444483,13.9138118 116.330887,13.9785644 116.168608,13.9785644 L113.50723,13.9785644 C113.28004,13.9785644 113.182672,13.8164438 113.28004,13.6054814 L119.349116,1.09376127 C119.414028,0.980165885 119.495168,0.931482149 119.608763,0.931482149 L119.738586,0.931482149 C119.85234,0.931482149 119.93348,0.980165885 119.998392,1.09376127 L126.067634,13.6054814 L126.067634,13.6054814 Z M118.472972,9.53227551 L120.874865,9.53227551 L119.67384,6.93580959 L118.472972,9.53227551 L118.472972,9.53227551 Z M142.091237,0.996556076 C142.269744,0.996556076 142.431707,1.14244874 142.431707,1.3371832 L142.431707,13.6541684 C142.431707,13.8326754 142.285814,13.9785676 142.107307,13.9785676 L141.247228,13.9785676 C140.565656,13.9785676 140.030135,13.5730288 139.510842,12.988824 L134.204314,7.0169524 L134.204314,13.6379405 C134.204314,13.8164475 134.058422,13.9785676 133.879756,13.9785676 L131.413113,13.9785676 C131.218378,13.9785676 131.072327,13.832675 131.072327,13.6379405 L131.072327,1.32095528 C131.072327,1.14244825 131.218378,0.996397043 131.396886,0.996397043 L132.922309,0.996397043 C133.100975,0.996397043 133.214571,1.06130869 133.393078,1.25604364 L139.28381,7.99062712 L139.28381,1.33734547 C139.28381,1.15867941 139.429861,1.01278723 139.608368,1.01278723 L142.091237,0.996556076 L142.091237,0.996556076 Z M152.386062,0.996556076 C156.621547,0.996556076 159.055734,4.42064551 159.055734,7.42280923 C159.055734,10.8955824 156.605319,13.9787234 152.386062,13.9787234 L148.05321,13.9787234 C147.858475,13.9787234 147.712423,13.8328307 147.712423,13.6380963 L147.712423,1.32111107 C147.712423,1.14260404 147.842247,0.996552831 148.036982,0.996552831 L152.386062,0.996552831 L152.386062,0.996556076 L152.386062,0.996556076 Z M152.386062,10.8468987 C154.609286,10.8468987 155.826379,9.07805626 155.826379,7.42280923 C155.826379,5.68642265 154.593058,4.12854309 152.386062,4.12854309 L150.92555,4.12854309 L150.92555,10.8468987 L152.386062,10.8468987 L152.386062,10.8468987 L152.386062,10.8468987 Z M170.648954,14.0923188 C174.300234,14.0923188 177.253714,11.155229 177.253714,7.48772088 C177.253714,3.83644068 174.300234,0.882960692 170.648954,0.882960692 C166.965218,0.882960692 164.011738,3.83644068 164.011738,7.48772088 C164.011738,11.155229 166.965218,14.0923188 170.648954,14.0923188 L170.648954,14.0923188 L170.648954,14.0923188 Z M170.632726,11.0254057 C168.798972,11.0254057 167.224865,9.33770285 167.224865,7.47149297 C167.224865,5.60528309 168.798972,3.95003606 170.632726,3.95003606 C172.482708,3.95003606 174.040588,5.60528309 174.040588,7.47149297 C174.040588,9.33770285 172.482708,11.0254057 170.632726,11.0254057 L170.632726,11.0254057 L170.632726,11.0254057 Z M197.074648,0.996556076 C197.253155,0.996556076 197.415435,1.14260728 197.415435,1.32111432 L197.415435,13.6380995 C197.415435,13.8166066 197.269383,13.9787266 197.090717,13.9787266 L194.607847,13.9787266 C194.413112,13.9787266 194.267061,13.832834 194.267061,13.6380995 L194.267061,7.32544176 L190.38859,13.1025784 C190.274994,13.2810855 190.145171,13.3459971 189.982892,13.3459971 L189.853069,13.3459971 C189.707017,13.3459971 189.577194,13.2810855 189.463599,13.1025784 L185.682495,7.34166967 L185.682495,13.6380995 C185.682495,13.8166066 185.536444,13.9787266 185.357937,13.9787266 L182.875066,13.9787266 C182.680331,13.9787266 182.53428,13.832834 182.53428,13.6380995 L182.53428,1.32111432 C182.53428,1.14260728 182.664103,0.996556076 182.858838,0.996556076 L185.228114,0.996556076 C185.374165,0.996556076 185.471532,1.07769564 185.569059,1.22358781 L189.918139,7.94194338 L194.364587,1.22358781 C194.461955,1.07769515 194.543094,0.996556076 194.705373,0.996556076 L197.074648,0.996556076 L197.074648,0.996556076 L197.074648,0.996556076 Z M225.6163,0.996556076 C225.794807,0.996556076 225.957086,1.14260728 225.957086,1.32111432 L225.957086,13.6380995 C225.957086,13.8166066 225.811035,13.9787266 225.632369,13.9787266 L223.149498,13.9787266 C222.954763,13.9787266 222.808712,13.832834 222.808712,13.6380995 L222.808712,7.32544176 L218.930241,13.1025784 C218.816646,13.2810855 218.686823,13.3459971 218.524543,13.3459971 L218.39472,13.3459971 C218.248669,13.3459971 218.118846,13.2810855 218.00525,13.1025784 L214.224147,7.34166967 L214.224147,13.6380995 C214.224147,13.8166066 214.078096,13.9787266 213.899589,13.9787266 L211.416718,13.9787266 C211.221983,13.9787266 211.075932,13.832834 211.075932,13.6380995 L211.075932,1.32111432 C211.075932,1.14260728 211.205755,0.996556076 211.40049,0.996556076 L213.769765,0.996556076 C213.915816,0.996556076 214.013184,1.07769564 214.11071,1.22358781 L218.459791,7.94194338 L222.906239,1.22358781 C223.003606,1.07769515 223.084746,0.996556076 223.247025,0.996556076 L225.6163,0.996556076 L225.6163,0.996556076 L225.6163,0.996556076 Z M237.874702,14.0923188 C241.525983,14.0923188 244.479463,11.155229 244.479463,7.48772088 C244.479463,3.83644068 241.525983,0.882960692 237.874702,0.882960692 C234.190966,0.882960692 231.237486,3.83644068 231.237486,7.48772088 C231.237486,11.155229 234.190966,14.0923188 237.874702,14.0923188 L237.874702,14.0923188 L237.874702,14.0923188 Z M237.858475,11.0254057 C236.024721,11.0254057 234.450613,9.33770285 234.450613,7.47149297 C234.450613,5.60528309 236.024721,3.95003606 237.858475,3.95003606 C239.708457,3.95003606 241.266336,5.60528309 241.266336,7.47149297 C241.266336,9.33770285 239.708457,11.0254057 237.858475,11.0254057 L237.858475,11.0254057 L237.858475,11.0254057 Z M261.541652,0.996556076 C261.752614,0.996556076 261.947508,1.14260728 261.801457,1.45093761 L255.878269,13.7679228 C255.79713,13.9302019 255.683534,14.108709 255.504868,14.108709 L255.326361,14.108709 C255.147854,14.108709 255.034259,13.9302019 254.953119,13.7679228 L249.029931,1.4347097 C248.88388,1.14260728 249.078615,0.996556076 249.289578,0.996556076 L251.967184,0.996556076 C252.145691,0.996556076 252.259286,1.14260728 252.389109,1.40225388 L255.423729,8.15306527 L258.441958,1.40225388 C258.571781,1.14260728 258.685536,0.996556076 258.864043,0.996556076 L261.541648,0.996556076 L261.541652,0.996556076 L261.541652,0.996556076 Z M269.467202,0.996556076 L267.000721,0.996556076 C266.805986,0.996556076 266.676163,1.14260728 266.676163,1.32111432 L266.676163,13.6380995 C266.676163,13.8328345 266.822214,13.9787266 267.016949,13.9787266 L269.483592,13.9787266 C269.662099,13.9787266 269.80815,13.8166061 269.80815,13.6380995 L269.80815,1.32111432 C269.80815,1.14260728 269.645871,0.996556076 269.467205,0.996556076 L269.467202,0.996556076 L269.467202,0.996556076 Z M283.738027,3.85250631 L278.561323,3.85266479 L278.561323,6.22193994 L281.320069,6.22193994 C281.498576,6.22193994 281.660855,6.36799115 281.660855,6.54649818 L281.660855,8.7372663 C281.660855,8.93200125 281.514803,9.07789342 281.320069,9.07789342 L278.561323,9.07789342 L278.561323,11.1226103 L283.738027,11.1226103 C283.916534,11.1226103 284.078814,11.2686615 284.078814,11.4471686 L284.078814,13.6379367 C284.078814,13.8326716 283.932762,13.9785638 283.738027,13.9785638 L275.753895,13.9785638 C275.55916,13.9785638 275.413109,13.8326712 275.413109,13.6379367 L275.413109,1.32095148 C275.413109,1.14244445 275.542932,0.996393239 275.737667,0.996393239 L283.738027,0.996393239 C283.916534,0.996393239 284.078814,1.14244445 284.078814,1.32095148 L284.078814,3.5117196 C284.078814,3.70645454 283.932762,3.85250575 283.738027,3.85250575 L283.738027,3.85250631 L283.738027,3.85250631 Z"></path>
                            </g>
                        </g>
                        <g id="t1486773915116">
                            <g id="Shape">
                                <path d="M11.0084926,0.996556076 C11.1871587,0.996556076 11.3328918,1.14276583 11.3328918,1.32127335 L11.3328918,13.6382586 C11.3328918,13.8492214 11.2030685,13.9788857 11.0245615,13.9788857 L8.99607248,13.9788857 C8.46055139,13.9788857 8.15222106,13.6056437 8.15222106,13.1025784 L8.15222106,9.24033538 L3.38121493,9.24033538 L3.38121493,13.6380995 C3.38121493,13.8166066 3.23516372,13.9787266 3.05665669,13.9787266 L0.55755824,13.9787266 C0.362823296,13.9787266 0.216772088,13.832834 0.216772088,13.6380995 L0.216772088,1.32111432 C0.216772088,1.14260728 0.346595384,0.996556076 0.541330328,0.996556076 L3.04042878,0.996556076 C3.21893581,0.996556076 3.38137396,1.14260728 3.38137396,1.32111432 L3.38137396,6.05966462 L8.15238009,6.05966462 L8.15238009,1.32111432 C8.15238009,1.14260728 8.28220339,0.996556076 8.47693833,0.996556076 L11.0084926,0.996556076 L11.0084926,0.996556076 L11.0084926,0.996556076 Z M29.1253336,13.6054814 C29.238929,13.8164443 29.1253336,13.9785644 28.8981428,13.9785644 L26.2367652,13.9785644 C26.0582582,13.9785644 25.9608907,13.8975834 25.8959791,13.7677605 L25.2144068,12.3234764 L20.2324378,12.3234764 L19.5670934,13.7677605 C19.5021818,13.9138118 19.3885864,13.9785644 19.2263072,13.9785644 L16.5649297,13.9785644 C16.3377389,13.9785644 16.2403714,13.8164438 16.3377389,13.6054814 L22.4068157,1.09376127 C22.4717274,0.980165885 22.5528669,0.931482149 22.6664623,0.931482149 L22.7962856,0.931482149 C22.9100395,0.931482149 22.9911796,0.980165885 23.0560912,1.09376127 L29.1253336,13.6054814 L29.1253336,13.6054814 Z M21.5306708,9.53227551 L23.932564,9.53227551 L22.7315395,6.93580959 L21.5306708,9.53227551 L21.5306708,9.53227551 Z M45.911648,0.996556076 C46.1226109,0.996556076 46.3175049,1.14260728 46.1714537,1.45093761 L40.2482658,13.7679228 C40.1671262,13.9302019 40.0535308,14.108709 39.8748648,14.108709 L39.6963577,14.108709 C39.5178507,14.108709 39.4042553,13.9302019 39.3231158,13.7679228 L33.3999279,1.4347097 C33.2538767,1.14260728 33.4486116,0.996556076 33.6595745,0.996556076 L36.3371799,0.996556076 C36.515687,0.996556076 36.6292824,1.14260728 36.7591057,1.40225388 L39.7937252,8.15306527 L42.8119546,1.40225388 C42.9417779,1.14260728 43.0555323,0.996556076 43.2340393,0.996556076 L45.9116448,0.996556076 L45.911648,0.996556076 L45.911648,0.996556076 Z M59.2897764,3.85250631 L54.1130725,3.85266479 L54.1130725,6.22193994 L56.8718175,6.22193994 C57.0503246,6.22193994 57.2126037,6.36799115 57.2126037,6.54649818 L57.2126037,8.7372663 C57.2126037,8.93200125 57.0665525,9.07789342 56.8718175,9.07789342 L54.1130725,9.07789342 L54.1130725,11.1226103 L59.2897764,11.1226103 C59.4682834,11.1226103 59.6305626,11.2686615 59.6305626,11.4471686 L59.6305626,13.6379367 C59.6305626,13.8326716 59.4845114,13.9785638 59.2897764,13.9785638 L51.3056437,13.9785638 C51.1109088,13.9785638 50.9648576,13.8326712 50.9648576,13.6379367 L50.9648576,1.32095148 C50.9648576,1.14244445 51.0946809,0.996393239 51.2894158,0.996393239 L59.2897764,0.996393239 C59.4682834,0.996393239 59.6305626,1.14244445 59.6305626,1.32095148 L59.6305626,3.5117196 C59.6305626,3.70645454 59.4845114,3.85250575 59.2897764,3.85250575 L59.2897764,3.85250631 L59.2897764,3.85250631 Z M85.3972413,13.6054814 C85.5108366,13.8164443 85.3972413,13.9785644 85.1700505,13.9785644 L82.5086729,13.9785644 C82.3301659,13.9785644 82.2327984,13.8975834 82.1678868,13.7677605 L81.4863145,12.3234764 L76.5043455,12.3234764 L75.8390011,13.7677605 C75.7740894,13.9138118 75.660494,13.9785644 75.4982149,13.9785644 L72.8368374,13.9785644 C72.6096466,13.9785644 72.5122791,13.8164438 72.6096466,13.6054814 L78.6787234,1.09376127 C78.7436351,0.980165885 78.8247746,0.931482149 78.93837,0.931482149 L79.0681933,0.931482149 C79.1819472,0.931482149 79.2630873,0.980165885 79.3279989,1.09376127 L85.3972413,13.6054814 L85.3972413,13.6054814 Z M77.8025784,9.53227551 L80.2044717,9.53227551 L79.0034472,6.93580959 L77.8025784,9.53227551 L77.8025784,9.53227551 Z M108.778417,13.5894125 C108.90824,13.8002164 108.810873,13.9787234 108.551226,13.9787234 L106.133267,13.9787234 C105.64643,13.9787234 105.224504,13.5405698 105.078453,13.2809232 L103.163559,9.95436351 L101.443401,9.95436351 L101.443401,13.6380995 C101.443401,13.8166066 101.297349,13.9787266 101.118842,13.9787266 L98.6359719,13.9787266 C98.4412369,13.9787266 98.2951857,13.832834 98.2951857,13.6380995 L98.2951857,1.32111432 C98.2951857,1.14260728 98.425009,0.996556076 98.619744,0.996556076 L103.893815,0.996556076 C106.636332,0.996556076 108.356491,3.49565453 108.356491,5.41054814 C108.356491,6.85483231 107.561323,8.42893978 106.181951,9.28901911 L108.778417,13.5894125 L108.778417,13.5894125 Z M101.443238,3.85250631 L101.443238,7.09808871 L103.406816,7.09808871 C104.721277,7.09808871 105.126974,6.15686982 105.126974,5.4590696 C105.126974,4.7774973 104.705049,3.85250631 103.406816,3.85250631 L101.443238,3.85250631 L101.443238,3.85250631 L101.443238,3.85250631 Z M126.067634,13.6054814 C126.18123,13.8164443 126.067634,13.9785644 125.840444,13.9785644 L123.179066,13.9785644 C123.000559,13.9785644 122.903191,13.8975834 122.83828,13.7677605 L122.156708,12.3234764 L117.174739,12.3234764 L116.509394,13.7677605 C116.444483,13.9138118 116.330887,13.9785644 116.168608,13.9785644 L113.50723,13.9785644 C113.28004,13.9785644 113.182672,13.8164438 113.28004,13.6054814 L119.349116,1.09376127 C119.414028,0.980165885 119.495168,0.931482149 119.608763,0.931482149 L119.738586,0.931482149 C119.85234,0.931482149 119.93348,0.980165885 119.998392,1.09376127 L126.067634,13.6054814 L126.067634,13.6054814 Z M118.472972,9.53227551 L120.874865,9.53227551 L119.67384,6.93580959 L118.472972,9.53227551 L118.472972,9.53227551 Z M142.091237,0.996556076 C142.269744,0.996556076 142.431707,1.14244874 142.431707,1.3371832 L142.431707,13.6541684 C142.431707,13.8326754 142.285814,13.9785676 142.107307,13.9785676 L141.247228,13.9785676 C140.565656,13.9785676 140.030135,13.5730288 139.510842,12.988824 L134.204314,7.0169524 L134.204314,13.6379405 C134.204314,13.8164475 134.058422,13.9785676 133.879756,13.9785676 L131.413113,13.9785676 C131.218378,13.9785676 131.072327,13.832675 131.072327,13.6379405 L131.072327,1.32095528 C131.072327,1.14244825 131.218378,0.996397043 131.396886,0.996397043 L132.922309,0.996397043 C133.100975,0.996397043 133.214571,1.06130869 133.393078,1.25604364 L139.28381,7.99062712 L139.28381,1.33734547 C139.28381,1.15867941 139.429861,1.01278723 139.608368,1.01278723 L142.091237,0.996556076 L142.091237,0.996556076 Z M152.386062,0.996556076 C156.621547,0.996556076 159.055734,4.42064551 159.055734,7.42280923 C159.055734,10.8955824 156.605319,13.9787234 152.386062,13.9787234 L148.05321,13.9787234 C147.858475,13.9787234 147.712423,13.8328307 147.712423,13.6380963 L147.712423,1.32111107 C147.712423,1.14260404 147.842247,0.996552831 148.036982,0.996552831 L152.386062,0.996552831 L152.386062,0.996556076 L152.386062,0.996556076 Z M152.386062,10.8468987 C154.609286,10.8468987 155.826379,9.07805626 155.826379,7.42280923 C155.826379,5.68642265 154.593058,4.12854309 152.386062,4.12854309 L150.92555,4.12854309 L150.92555,10.8468987 L152.386062,10.8468987 L152.386062,10.8468987 L152.386062,10.8468987 Z M170.648954,14.0923188 C174.300234,14.0923188 177.253714,11.155229 177.253714,7.48772088 C177.253714,3.83644068 174.300234,0.882960692 170.648954,0.882960692 C166.965218,0.882960692 164.011738,3.83644068 164.011738,7.48772088 C164.011738,11.155229 166.965218,14.0923188 170.648954,14.0923188 L170.648954,14.0923188 L170.648954,14.0923188 Z M170.632726,11.0254057 C168.798972,11.0254057 167.224865,9.33770285 167.224865,7.47149297 C167.224865,5.60528309 168.798972,3.95003606 170.632726,3.95003606 C172.482708,3.95003606 174.040588,5.60528309 174.040588,7.47149297 C174.040588,9.33770285 172.482708,11.0254057 170.632726,11.0254057 L170.632726,11.0254057 L170.632726,11.0254057 Z M197.074648,0.996556076 C197.253155,0.996556076 197.415435,1.14260728 197.415435,1.32111432 L197.415435,13.6380995 C197.415435,13.8166066 197.269383,13.9787266 197.090717,13.9787266 L194.607847,13.9787266 C194.413112,13.9787266 194.267061,13.832834 194.267061,13.6380995 L194.267061,7.32544176 L190.38859,13.1025784 C190.274994,13.2810855 190.145171,13.3459971 189.982892,13.3459971 L189.853069,13.3459971 C189.707017,13.3459971 189.577194,13.2810855 189.463599,13.1025784 L185.682495,7.34166967 L185.682495,13.6380995 C185.682495,13.8166066 185.536444,13.9787266 185.357937,13.9787266 L182.875066,13.9787266 C182.680331,13.9787266 182.53428,13.832834 182.53428,13.6380995 L182.53428,1.32111432 C182.53428,1.14260728 182.664103,0.996556076 182.858838,0.996556076 L185.228114,0.996556076 C185.374165,0.996556076 185.471532,1.07769564 185.569059,1.22358781 L189.918139,7.94194338 L194.364587,1.22358781 C194.461955,1.07769515 194.543094,0.996556076 194.705373,0.996556076 L197.074648,0.996556076 L197.074648,0.996556076 L197.074648,0.996556076 Z M225.6163,0.996556076 C225.794807,0.996556076 225.957086,1.14260728 225.957086,1.32111432 L225.957086,13.6380995 C225.957086,13.8166066 225.811035,13.9787266 225.632369,13.9787266 L223.149498,13.9787266 C222.954763,13.9787266 222.808712,13.832834 222.808712,13.6380995 L222.808712,7.32544176 L218.930241,13.1025784 C218.816646,13.2810855 218.686823,13.3459971 218.524543,13.3459971 L218.39472,13.3459971 C218.248669,13.3459971 218.118846,13.2810855 218.00525,13.1025784 L214.224147,7.34166967 L214.224147,13.6380995 C214.224147,13.8166066 214.078096,13.9787266 213.899589,13.9787266 L211.416718,13.9787266 C211.221983,13.9787266 211.075932,13.832834 211.075932,13.6380995 L211.075932,1.32111432 C211.075932,1.14260728 211.205755,0.996556076 211.40049,0.996556076 L213.769765,0.996556076 C213.915816,0.996556076 214.013184,1.07769564 214.11071,1.22358781 L218.459791,7.94194338 L222.906239,1.22358781 C223.003606,1.07769515 223.084746,0.996556076 223.247025,0.996556076 L225.6163,0.996556076 L225.6163,0.996556076 L225.6163,0.996556076 Z M237.874702,14.0923188 C241.525983,14.0923188 244.479463,11.155229 244.479463,7.48772088 C244.479463,3.83644068 241.525983,0.882960692 237.874702,0.882960692 C234.190966,0.882960692 231.237486,3.83644068 231.237486,7.48772088 C231.237486,11.155229 234.190966,14.0923188 237.874702,14.0923188 L237.874702,14.0923188 L237.874702,14.0923188 Z M237.858475,11.0254057 C236.024721,11.0254057 234.450613,9.33770285 234.450613,7.47149297 C234.450613,5.60528309 236.024721,3.95003606 237.858475,3.95003606 C239.708457,3.95003606 241.266336,5.60528309 241.266336,7.47149297 C241.266336,9.33770285 239.708457,11.0254057 237.858475,11.0254057 L237.858475,11.0254057 L237.858475,11.0254057 Z M261.541652,0.996556076 C261.752614,0.996556076 261.947508,1.14260728 261.801457,1.45093761 L255.878269,13.7679228 C255.79713,13.9302019 255.683534,14.108709 255.504868,14.108709 L255.326361,14.108709 C255.147854,14.108709 255.034259,13.9302019 254.953119,13.7679228 L249.029931,1.4347097 C248.88388,1.14260728 249.078615,0.996556076 249.289578,0.996556076 L251.967184,0.996556076 C252.145691,0.996556076 252.259286,1.14260728 252.389109,1.40225388 L255.423729,8.15306527 L258.441958,1.40225388 C258.571781,1.14260728 258.685536,0.996556076 258.864043,0.996556076 L261.541648,0.996556076 L261.541652,0.996556076 L261.541652,0.996556076 Z M269.467202,0.996556076 L267.000721,0.996556076 C266.805986,0.996556076 266.676163,1.14260728 266.676163,1.32111432 L266.676163,13.6380995 C266.676163,13.8328345 266.822214,13.9787266 267.016949,13.9787266 L269.483592,13.9787266 C269.662099,13.9787266 269.80815,13.8166061 269.80815,13.6380995 L269.80815,1.32111432 C269.80815,1.14260728 269.645871,0.996556076 269.467205,0.996556076 L269.467202,0.996556076 L269.467202,0.996556076 Z M283.738027,3.85250631 L278.561323,3.85266479 L278.561323,6.22193994 L281.320069,6.22193994 C281.498576,6.22193994 281.660855,6.36799115 281.660855,6.54649818 L281.660855,8.7372663 C281.660855,8.93200125 281.514803,9.07789342 281.320069,9.07789342 L278.561323,9.07789342 L278.561323,11.1226103 L283.738027,11.1226103 C283.916534,11.1226103 284.078814,11.2686615 284.078814,11.4471686 L284.078814,13.6379367 C284.078814,13.8326716 283.932762,13.9785638 283.738027,13.9785638 L275.753895,13.9785638 C275.55916,13.9785638 275.413109,13.8326712 275.413109,13.6379367 L275.413109,1.32095148 C275.413109,1.14244445 275.542932,0.996393239 275.737667,0.996393239 L283.738027,0.996393239 C283.916534,0.996393239 284.078814,1.14244445 284.078814,1.32095148 L284.078814,3.5117196 C284.078814,3.70645454 283.932762,3.85250575 283.738027,3.85250575 L283.738027,3.85250631 L283.738027,3.85250631 Z"></path>
                            </g>
                        </g>
                    </g>
                    <g id="SvgjsUse1802" stroke="#286655">
                        <g id="a1486773915116" transform="translate(0.000000, -0.000000)">
                            <g id="Group" transform="translate(0.000000, 0.637820)">
                                <path d="M10,0.36216 C4.4932,0.36216 1.99999974e-07,4.88356 1.99999974e-07,10.39341 L1.99999974e-07,78.3622 C1.99999974e-07,83.872 4.4932,88.3622 10,88.3622 L78,88.3622 C83.5068,88.3622 88,83.872 88,78.3622 L88,10.39341 C88,4.88356 83.5068,0.36216 78,0.36216 L10,0.36216 L10,0.36216 Z M10,4.36216 L78,4.36216 C81.3572,4.36216 84,7.02743 84,10.39341 L84,78.3622 C84,81.7282 81.3572,84.3622 78,84.3622 L10,84.3622 C6.6428,84.3622 4,81.7282 4,78.3622 L4,10.39341 C4,7.02743 6.6428,4.36216 10,4.36216 L10,4.36216 L10,4.36216 Z M13.8125,24.36216 C12.82934,24.45486 11.99576,25.37465 12,26.36216 L12,39.39341 C12.005,40.0116 12.31506,40.62009 12.8125,40.98716 L16,43.3934 L16,45.3622 L12.75,47.9247 C12.27535,48.3046 11.99022,48.9105 12,49.5184 L12,62.3622 C12.00013,63.4093 12.95284,64.3621 14,64.3622 L74,64.3622 C75.04716,64.3621 75.99987,63.4093 76,62.3622 L76,49.4559 C76.002,48.8429 75.70477,48.2358 75.21875,47.8622 L72,45.3934 L72,43.3934 L75.21875,40.89341 C75.69656,40.52621 75.99292,39.93348 76,39.33091 L76,26.36216 C75.99987,25.315 75.04716,24.36229 74,24.36216 L13.8125,24.36216 L13.8125,24.36216 L13.8125,24.36216 Z M16,28.36216 L72,28.36216 L72,38.36216 L68.78125,40.86216 C68.29523,41.23574 67.99759,41.84291 68,42.4559 L68,46.3934 C68.007,46.996 68.30344,47.5887 68.78125,47.9559 L72,50.4247 L72,60.3622 L16,60.3622 L16,50.4872 L19.25,47.9247 C19.71642,47.5512 20.00034,46.9597 20,46.3622 L20,42.3622 C19.995,41.74397 19.68494,41.13548 19.1875,40.76841 L16,38.39341 L16,28.36216 L16,28.36216 Z M27.8125,32.36216 C26.82932,32.45476 25.99572,33.37464 26,34.36216 L26,54.3622 C26.00007,55.4094 26.95282,56.3621 28,56.3622 L60,56.3622 C61.04718,56.3621 61.99993,55.4094 62,54.3622 L62,34.36216 C61.99993,33.31498 61.04718,32.36223 60,32.36216 L27.8125,32.36216 L27.8125,32.36216 L27.8125,32.36216 Z M30,36.36216 L34,36.36216 L34,38.39341 L30,38.39341 L30,36.36216 L30,36.36216 Z M38,36.36216 L50,36.36216 L50,42.3934 L38,42.3934 L38,36.36216 L38,36.36216 Z M54,36.36216 L58,36.36216 L58,38.39341 L54,38.39341 L54,36.36216 L54,36.36216 Z M30,42.3934 L34,42.3934 L34,46.3934 L30,46.3934 L30,42.3934 L30,42.3934 Z M54,42.3934 L58,42.3934 L58,46.3934 L54,46.3934 L54,42.3934 L54,42.3934 Z M38,46.3934 L50,46.3934 L50,52.3622 L38,52.3622 L38,46.3934 L38,46.3934 Z M30,50.3934 L34,50.3934 L34,52.3622 L30,52.3622 L30,50.3934 L30,50.3934 Z M54,50.3934 L58,50.3934 L58,52.3622 L54,52.3622 L54,50.3934 L54,50.3934 Z" id="Shape"></path>
                            </g>
                        </g>
                        <g id="a1486773915116" transform="translate(0.000000, -0.000000)">
                            <g id="Group" transform="translate(0.000000, 0.637820)">
                                <path d="M10,0.36216 C4.4932,0.36216 1.99999974e-07,4.88356 1.99999974e-07,10.39341 L1.99999974e-07,78.3622 C1.99999974e-07,83.872 4.4932,88.3622 10,88.3622 L78,88.3622 C83.5068,88.3622 88,83.872 88,78.3622 L88,10.39341 C88,4.88356 83.5068,0.36216 78,0.36216 L10,0.36216 L10,0.36216 Z M10,4.36216 L78,4.36216 C81.3572,4.36216 84,7.02743 84,10.39341 L84,78.3622 C84,81.7282 81.3572,84.3622 78,84.3622 L10,84.3622 C6.6428,84.3622 4,81.7282 4,78.3622 L4,10.39341 C4,7.02743 6.6428,4.36216 10,4.36216 L10,4.36216 L10,4.36216 Z M13.8125,24.36216 C12.82934,24.45486 11.99576,25.37465 12,26.36216 L12,39.39341 C12.005,40.0116 12.31506,40.62009 12.8125,40.98716 L16,43.3934 L16,45.3622 L12.75,47.9247 C12.27535,48.3046 11.99022,48.9105 12,49.5184 L12,62.3622 C12.00013,63.4093 12.95284,64.3621 14,64.3622 L74,64.3622 C75.04716,64.3621 75.99987,63.4093 76,62.3622 L76,49.4559 C76.002,48.8429 75.70477,48.2358 75.21875,47.8622 L72,45.3934 L72,43.3934 L75.21875,40.89341 C75.69656,40.52621 75.99292,39.93348 76,39.33091 L76,26.36216 C75.99987,25.315 75.04716,24.36229 74,24.36216 L13.8125,24.36216 L13.8125,24.36216 L13.8125,24.36216 Z M16,28.36216 L72,28.36216 L72,38.36216 L68.78125,40.86216 C68.29523,41.23574 67.99759,41.84291 68,42.4559 L68,46.3934 C68.007,46.996 68.30344,47.5887 68.78125,47.9559 L72,50.4247 L72,60.3622 L16,60.3622 L16,50.4872 L19.25,47.9247 C19.71642,47.5512 20.00034,46.9597 20,46.3622 L20,42.3622 C19.995,41.74397 19.68494,41.13548 19.1875,40.76841 L16,38.39341 L16,28.36216 L16,28.36216 Z M27.8125,32.36216 C26.82932,32.45476 25.99572,33.37464 26,34.36216 L26,54.3622 C26.00007,55.4094 26.95282,56.3621 28,56.3622 L60,56.3622 C61.04718,56.3621 61.99993,55.4094 62,54.3622 L62,34.36216 C61.99993,33.31498 61.04718,32.36223 60,32.36216 L27.8125,32.36216 L27.8125,32.36216 L27.8125,32.36216 Z M30,36.36216 L34,36.36216 L34,38.39341 L30,38.39341 L30,36.36216 L30,36.36216 Z M38,36.36216 L50,36.36216 L50,42.3934 L38,42.3934 L38,36.36216 L38,36.36216 Z M54,36.36216 L58,36.36216 L58,38.39341 L54,38.39341 L54,36.36216 L54,36.36216 Z M30,42.3934 L34,42.3934 L34,46.3934 L30,46.3934 L30,42.3934 L30,42.3934 Z M54,42.3934 L58,42.3934 L58,46.3934 L54,46.3934 L54,42.3934 L54,42.3934 Z M38,46.3934 L50,46.3934 L50,52.3622 L38,52.3622 L38,46.3934 L38,46.3934 Z M30,50.3934 L34,50.3934 L34,52.3622 L30,52.3622 L30,50.3934 L30,50.3934 Z M54,50.3934 L58,50.3934 L58,52.3622 L54,52.3622 L54,50.3934 L54,50.3934 Z" id="Shape"></path>
                            </g>
                        </g>
                    </g>
                </g>
            </g>
        </g>
    </g>
</svg>