<?xml version="1.0" encoding="UTF-8" standalone="no"?>
<svg width="266px" height="319px" viewBox="0 0 266 319" version="1.1" xmlns="http://www.w3.org/2000/svg" xmlns:xlink="http://www.w3.org/1999/xlink">
    <!-- Generator: Sketch 3.6.1 (26313) - http://www.bohemiancoding.com/sketch -->
    <title>Untitled</title>
    <desc>Created with Sketch.</desc>
    <defs></defs>
    <g id="Page-1" stroke="none" stroke-width="1" fill="none" fill-rule="evenodd">
        <path d="M58.528,181.106 L103.52,104.455 L58.528,181.106 Z M87.752,181.106 L118.209,129.341 L87.752,181.106 Z M116.999,181.106 L132.881,154.198 L116.999,181.106 Z M148.763,181.106 L89.144,80.1 L148.763,181.106 Z M30.828,181.106 L178.01,181.106 L30.828,181.106 Z M118.302,29.596 L234.934,228.297 L118.302,29.596 Z M103.723,54.848 L205.776,228.297 L103.723,54.848 Z M16.249,206.357 L192.867,206.357 L16.249,206.357 Z M132.881,4.345 L262.18,228.297 L3.582,228.297 L132.881,4.345 L132.881,4.345 Z" id="Stroke-1" stroke="#2D2E2C" stroke-width="4"></path>
        <g id="Ethnique" transform="translate(4.000000, 235.000000)" font-weight="300" font-size="36" font-family="Roboto-Thin, Roboto" fill="#2D2E2C" font-style="condensed">
            <text id="Give-Awesome">
                <tspan x="14.3544922" y="33">Give Awesome</tspan>
                <tspan x="73.9619141" y="75">Movies</tspan>
            </text>
        </g>
    </g>
</svg>